<?xml version="1.0" standalone="no"?>
<!DOCTYPE svg PUBLIC "-//W3C//DTD SVG 20010904//EN"
 "http://www.w3.org/TR/2001/REC-SVG-20010904/DTD/svg10.dtd">
<svg version="1.0" xmlns="http://www.w3.org/2000/svg"
 width="500.000000pt" height="500.000000pt" viewBox="0 0 500.000000 500.000000"
 preserveAspectRatio="xMidYMid meet">
<metadata>
Created by potrace 1.14, written by Peter Selinger 2001-2017
</metadata>
<g transform="translate(0.000000,500.000000) scale(0.100000,-0.100000)"
fill="#000000" stroke="none">
<path d="M2040 3696 c0 -9 21 -15 73 -19 79 -7 162 -29 191 -52 19 -14 14 -31
-130 -507 -138 -457 -151 -495 -182 -525 -28 -28 -41 -33 -80 -33 l-46 0 33
34 c47 49 23 52 -48 6 -42 -27 -73 -40 -97 -40 -19 0 -43 -4 -52 -9 -19 -9
-92 -3 -92 8 0 14 116 120 207 190 81 62 143 129 143 153 0 30 -60 -19 -246
-201 l-151 -148 -114 -7 c-62 -4 -116 -9 -118 -12 -11 -11 12 -12 99 -4 52 5
96 7 98 5 7 -6 -191 -149 -281 -204 -99 -60 -188 -101 -219 -101 -18 0 -20 4
-14 33 5 30 5 31 -9 13 -20 -26 -19 -55 2 -63 44 -17 244 89 424 224 57 43
113 85 124 93 11 8 3 -8 -18 -35 -62 -84 -183 -266 -222 -337 -60 -111 -24
-77 49 45 36 61 103 163 147 225 l80 113 47 -7 c93 -13 93 -16 3 -109 -45 -45
-81 -90 -81 -99 0 -20 31 -21 96 -1 61 18 64 18 64 0 0 -19 32 -19 99 1 48 14
55 14 70 0 22 -20 68 -20 146 -1 76 18 80 18 65 0 -19 -23 -2 -18 59 19 31 19
70 38 86 42 l30 7 -27 -30 c-32 -33 -36 -53 -10 -53 17 0 90 16 125 26 11 4
17 0 17 -10 0 -18 27 -21 65 -6 18 7 31 6 45 -2 16 -10 33 -9 86 5 63 16 67
16 79 0 11 -15 20 -16 90 -5 43 7 80 10 82 8 2 -2 -39 -39 -91 -82 -53 -43
-96 -81 -96 -86 0 -19 163 85 203 129 11 13 32 20 61 21 23 1 65 9 92 17 62
19 65 19 57 -2 -5 -13 -1 -15 23 -10 16 3 38 9 49 12 49 16 -36 -38 -133 -85
-57 -28 -105 -57 -108 -65 -4 -8 -17 -15 -30 -15 -13 0 -24 -5 -24 -11 0 -7
18 -68 39 -138 58 -184 71 -242 71 -310 0 -115 -35 -146 -186 -163 -67 -8 -94
-15 -94 -24 0 -12 76 -14 440 -14 368 0 440 2 440 14 0 9 -18 16 -57 21 -85
10 -140 39 -175 94 -26 41 -75 184 -153 444 l-26 87 -91 0 -91 0 75 55 c53 38
108 66 189 97 125 46 125 46 117 53 -3 3 -42 -8 -88 -25 -46 -17 -84 -29 -86
-27 -2 2 17 18 42 36 25 18 43 36 40 39 -3 3 -37 -9 -76 -27 -83 -39 -109 -37
-51 3 51 35 47 44 -6 17 -41 -22 -182 -61 -217 -61 -20 1 -20 1 3 20 13 11 31
20 40 20 26 0 111 57 111 75 0 24 -19 18 -88 -27 -36 -23 -75 -43 -86 -44 -12
-1 -34 -7 -51 -14 -40 -16 -145 -26 -145 -13 0 5 9 18 20 28 30 27 24 39 -7
16 -29 -21 -173 -65 -182 -56 -9 10 33 43 109 86 99 55 170 107 170 125 0 11
23 14 116 14 89 0 115 3 111 13 -3 9 -321 1055 -343 1130 -5 16 -29 17 -315
17 -253 0 -309 -2 -309 -14z m349 -175 c23 -45 311 -940 311 -966 0 -3 15 -5
32 -5 l33 0 -40 -21 c-50 -27 -158 -104 -175 -124 -9 -11 -22 -14 -41 -10 -18
4 -45 -1 -75 -14 -51 -23 -151 -51 -180 -51 -16 0 -15 2 4 23 45 47 21 66 -45
37 -27 -12 -42 -15 -35 -9 23 24 12 33 -12 10 -42 -39 -266 -83 -266 -51 0 15
35 30 56 24 24 -6 74 11 74 26 0 23 -32 20 -118 -14 -95 -38 -172 -55 -172
-39 0 16 63 69 162 137 80 54 105 66 138 66 42 0 56 16 18 22 -21 3 -21 3 5
34 19 23 23 34 15 42 -8 8 25 134 128 476 76 256 142 466 146 466 4 0 21 -26
37 -59z m-470 -658 c-17 -21 -61 -60 -109 -98 -19 -15 -2 5 39 44 73 69 97 88
70 54z m-44 -273 c-3 -5 -16 -15 -28 -21 -19 -9 -19 -8 3 10 28 23 34 26 25
11z m-125 -65 c-10 -12 -16 -13 -26 -4 -20 16 -18 19 12 19 22 0 25 -2 14 -15z
m45 5 c-3 -5 -16 -15 -28 -21 -19 -9 -19 -8 3 10 28 23 34 26 25 11z m39 -75
c-76 -72 -98 -87 -153 -105 -67 -21 -101 -25 -101 -12 0 15 60 66 158 133 82
57 104 68 141 68 l43 1 -88 -85z m121 75 c-3 -5 -16 -15 -28 -21 -19 -9 -19
-8 3 10 28 23 34 26 25 11z m761 -34 c-30 -25 -118 -76 -101 -59 13 14 118 83
125 83 3 -1 -8 -11 -24 -24z m-206 -121 c0 -10 -82 -46 -98 -43 -12 2 -7 9 18
25 31 20 80 31 80 18z m500 -149 c0 -9 -101 -68 -107 -63 -3 3 16 20 43 36 44
29 64 37 64 27z"/>
<path d="M1876 2143 c-150 -518 -188 -580 -368 -608 -24 -4 -38 -11 -38 -20 0
-13 45 -15 310 -15 259 0 310 2 310 14 0 10 -20 16 -72 21 -107 10 -148 23
-183 58 -61 61 -54 155 29 415 25 78 46 145 46 147 0 14 -29 3 -34 -12z"/>
</g>
</svg>
<?xml version="1.0" standalone="no"?>
<!DOCTYPE svg PUBLIC "-//W3C//DTD SVG 20010904//EN"
 "http://www.w3.org/TR/2001/REC-SVG-20010904/DTD/svg10.dtd">
<svg version="1.0" xmlns="http://www.w3.org/2000/svg"
 width="500.000000pt" height="500.000000pt" viewBox="0 0 500.000000 500.000000"
 preserveAspectRatio="xMidYMid meet">
<metadata>
Created by potrace 1.14, written by Peter Selinger 2001-2017
</metadata>
<g transform="translate(0.000000,500.000000) scale(0.100000,-0.100000)"
fill="#000000" stroke="none">
<path d="M2040 3696 c0 -9 21 -15 73 -19 79 -7 162 -29 191 -52 19 -14 14 -31
-130 -507 -138 -457 -151 -495 -182 -525 -28 -28 -41 -33 -80 -33 l-46 0 33
34 c47 49 23 52 -48 6 -42 -27 -73 -40 -97 -40 -19 0 -43 -4 -52 -9 -19 -9
-92 -3 -92 8 0 14 116 120 207 190 81 62 143 129 143 153 0 30 -60 -19 -246
-201 l-151 -148 -114 -7 c-62 -4 -116 -9 -118 -12 -11 -11 12 -12 99 -4 52 5
96 7 98 5 7 -6 -191 -149 -281 -204 -99 -60 -188 -101 -219 -101 -18 0 -20 4
-14 33 5 30 5 31 -9 13 -20 -26 -19 -55 2 -63 44 -17 244 89 424 224 57 43
113 85 124 93 11 8 3 -8 -18 -35 -62 -84 -183 -266 -222 -337 -60 -111 -24
-77 49 45 36 61 103 163 147 225 l80 113 47 -7 c93 -13 93 -16 3 -109 -45 -45
-81 -90 -81 -99 0 -20 31 -21 96 -1 61 18 64 18 64 0 0 -19 32 -19 99 1 48 14
55 14 70 0 22 -20 68 -20 146 -1 76 18 80 18 65 0 -19 -23 -2 -18 59 19 31 19
70 38 86 42 l30 7 -27 -30 c-32 -33 -36 -53 -10 -53 17 0 90 16 125 26 11 4
17 0 17 -10 0 -18 27 -21 65 -6 18 7 31 6 45 -2 16 -10 33 -9 86 5 63 16 67
16 79 0 11 -15 20 -16 90 -5 43 7 80 10 82 8 2 -2 -39 -39 -91 -82 -53 -43
-96 -81 -96 -86 0 -19 163 85 203 129 11 13 32 20 61 21 23 1 65 9 92 17 62
19 65 19 57 -2 -5 -13 -1 -15 23 -10 16 3 38 9 49 12 49 16 -36 -38 -133 -85
-57 -28 -105 -57 -108 -65 -4 -8 -17 -15 -30 -15 -13 0 -24 -5 -24 -11 0 -7
18 -68 39 -138 58 -184 71 -242 71 -310 0 -115 -35 -146 -186 -163 -67 -8 -94
-15 -94 -24 0 -12 76 -14 440 -14 368 0 440 2 440 14 0 9 -18 16 -57 21 -85
10 -140 39 -175 94 -26 41 -75 184 -153 444 l-26 87 -91 0 -91 0 75 55 c53 38
108 66 189 97 125 46 125 46 117 53 -3 3 -42 -8 -88 -25 -46 -17 -84 -29 -86
-27 -2 2 17 18 42 36 25 18 43 36 40 39 -3 3 -37 -9 -76 -27 -83 -39 -109 -37
-51 3 51 35 47 44 -6 17 -41 -22 -182 -61 -217 -61 -20 1 -20 1 3 20 13 11 31
20 40 20 26 0 111 57 111 75 0 24 -19 18 -88 -27 -36 -23 -75 -43 -86 -44 -12
-1 -34 -7 -51 -14 -40 -16 -145 -26 -145 -13 0 5 9 18 20 28 30 27 24 39 -7
16 -29 -21 -173 -65 -182 -56 -9 10 33 43 109 86 99 55 170 107 170 125 0 11
23 14 116 14 89 0 115 3 111 13 -3 9 -321 1055 -343 1130 -5 16 -29 17 -315
17 -253 0 -309 -2 -309 -14z m349 -175 c23 -45 311 -940 311 -966 0 -3 15 -5
32 -5 l33 0 -40 -21 c-50 -27 -158 -104 -175 -124 -9 -11 -22 -14 -41 -10 -18
4 -45 -1 -75 -14 -51 -23 -151 -51 -180 -51 -16 0 -15 2 4 23 45 47 21 66 -45
37 -27 -12 -42 -15 -35 -9 23 24 12 33 -12 10 -42 -39 -266 -83 -266 -51 0 15
35 30 56 24 24 -6 74 11 74 26 0 23 -32 20 -118 -14 -95 -38 -172 -55 -172
-39 0 16 63 69 162 137 80 54 105 66 138 66 42 0 56 16 18 22 -21 3 -21 3 5
34 19 23 23 34 15 42 -8 8 25 134 128 476 76 256 142 466 146 466 4 0 21 -26
37 -59z m-470 -658 c-17 -21 -61 -60 -109 -98 -19 -15 -2 5 39 44 73 69 97 88
70 54z m-44 -273 c-3 -5 -16 -15 -28 -21 -19 -9 -19 -8 3 10 28 23 34 26 25
11z m-125 -65 c-10 -12 -16 -13 -26 -4 -20 16 -18 19 12 19 22 0 25 -2 14 -15z
m45 5 c-3 -5 -16 -15 -28 -21 -19 -9 -19 -8 3 10 28 23 34 26 25 11z m39 -75
c-76 -72 -98 -87 -153 -105 -67 -21 -101 -25 -101 -12 0 15 60 66 158 133 82
57 104 68 141 68 l43 1 -88 -85z m121 75 c-3 -5 -16 -15 -28 -21 -19 -9 -19
-8 3 10 28 23 34 26 25 11z m761 -34 c-30 -25 -118 -76 -101 -59 13 14 118 83
125 83 3 -1 -8 -11 -24 -24z m-206 -121 c0 -10 -82 -46 -98 -43 -12 2 -7 9 18
25 31 20 80 31 80 18z m500 -149 c0 -9 -101 -68 -107 -63 -3 3 16 20 43 36 44
29 64 37 64 27z"/>
<path d="M1876 2143 c-150 -518 -188 -580 -368 -608 -24 -4 -38 -11 -38 -20 0
-13 45 -15 310 -15 259 0 310 2 310 14 0 10 -20 16 -72 21 -107 10 -148 23
-183 58 -61 61 -54 155 29 415 25 78 46 145 46 147 0 14 -29 3 -34 -12z"/>
</g>
</svg>
